<?xml version="1.0" encoding="utf-8"?>
<!-- Generator: Adobe Illustrator 24.0.1, SVG Export Plug-In . SVG Version: 6.00 Build 0)  -->
<svg version="1.1" id="레이어_1" xmlns="http://www.w3.org/2000/svg" xmlns:xlink="http://www.w3.org/1999/xlink" x="0px"
	 y="0px" viewBox="0 0 328.7 50.8" style="enable-background:new 0 0 328.7 50.8;" xml:space="preserve">
<style type="text/css">
	.st0{fill:#0057A8;}
	.st1{fill:#FE6CAA;}
</style>
<g>
	<path class="st0" d="M41.1,36.9c-1,0.9-2.5,1.6-4.2,1.6c-1.7,0-3.2-0.6-4.2-1.6c-1-0.9-1.6-2.1-1.6-3.5c0-1.3,0.6-2.5,1.6-3.5
		c1-0.9,2.5-1.6,4.2-1.6h0c1.7,0,3.2,0.6,4.2,1.6c1,0.9,1.6,2.1,1.6,3.5C42.8,34.8,42.2,36,41.1,36.9L41.1,36.9z M48.5,22.9
		l-5.1-0.3l-0.1,2.5c-1.8-1.2-4-1.8-6.3-1.8c-2.9,0-5.6,1.1-7.6,2.9c-2,1.8-3.3,4.4-3.3,7.3c0,2.9,1.3,5.5,3.3,7.3
		c2,1.8,4.7,2.9,7.6,2.9c1.9,0,3.7-0.5,5.3-1.3l-0.1,2.1l5.1,0.3L48.5,22.9L48.5,22.9z"/>
	<path class="st0" d="M17.2,34c-1.1,1-2.6,1.6-4.3,1.6c-1.7,0-3.2-0.6-4.3-1.6C7.6,33,7,31.8,7,30.5c0-1.3,0.6-2.6,1.6-3.5
		c1.1-1,2.6-1.6,4.3-1.6c1.7,0,3.2,0.6,4.3,1.6c1.1,1,1.6,2.2,1.6,3.5C18.8,31.8,18.2,33,17.2,34L17.2,34z M20.6,23.1
		c-2-1.8-4.7-2.9-7.7-2.9c-2.6,0-5,0.8-6.9,2.3l-0.9-8.2L0,14.8l3.2,29.1l5.1-0.6l-0.4-3.7c1.5,0.7,3.2,1.1,5,1.1
		c3,0,5.7-1.1,7.7-2.9c2-1.8,3.3-4.4,3.3-7.3C23.9,27.6,22.6,25,20.6,23.1L20.6,23.1z"/>
	<path class="st0" d="M231.6,32.6c-0.1,1.2-0.7,2.2-1.7,3c-0.9,0.7-2.1,1.1-3.4,1.1c-0.1,0-0.3,0-0.4,0c-1.3-0.1-2.5-0.6-3.4-1.4
		c-0.9-0.8-1.4-1.9-1.4-3.1c0-0.1,0-0.2,0-0.3l0,0c0.1-1.2,0.7-2.2,1.7-2.9c0.9-0.7,2.1-1.1,3.4-1.1c0.1,0,0.3,0,0.4,0
		c1.3,0.1,2.5,0.6,3.4,1.4c0.9,0.8,1.4,1.9,1.4,3.1C231.6,32.4,231.6,32.5,231.6,32.6L231.6,32.6z M233.9,25.7
		c-1.7-1.7-4.1-2.8-6.7-3c-0.3,0-0.6,0-0.8,0c-2.6,0-5,0.9-6.8,2.5c-1.8,1.5-3.1,3.8-3.3,6.4l0,0c0,0.2,0,0.5,0,0.7
		c0,2.6,1.1,4.9,2.8,6.6c1.7,1.7,4.1,2.8,6.7,3c0.3,0,0.6,0,0.8,0c2.6,0,5-0.9,6.8-2.5c1.8-1.5,3.1-3.8,3.3-6.4c0-0.2,0-0.5,0-0.7
		C236.7,29.8,235.6,27.4,233.9,25.7L233.9,25.7z"/>
	<path class="st0" d="M254.1,33.9c-0.1,1.1-0.7,2-1.5,2.7c-0.9,0.7-2.1,1.2-3.4,1.2c-0.2,0-0.5,0-0.7,0c-1.4-0.2-2.6-0.8-3.4-1.7
		c-0.8-0.9-1.2-1.9-1.2-2.9c0-0.2,0-0.3,0-0.5l-0.1,0v0l0.1,0c0.1-1.1,0.7-2,1.5-2.7c0.9-0.7,2.1-1.2,3.4-1.1c0.2,0,0.5,0,0.7,0
		c1.4,0.2,2.6,0.8,3.4,1.6c0.8,0.9,1.2,1.9,1.2,2.9C254.1,33.6,254.1,33.7,254.1,33.9L254.1,33.9z M256.5,27
		c-1.6-1.7-3.9-2.9-6.4-3.2c-0.5-0.1-0.9-0.1-1.4-0.1c-1.8,0-3.5,0.4-4.9,1.2l0.1-7.2l-5.1-0.1l-0.3,26.7l5.1,0.1l0-3
		c1.2,0.7,2.6,1.2,4.2,1.4c0.5,0.1,0.9,0.1,1.4,0.1h0c2.5,0,4.8-0.8,6.6-2.3c1.8-1.4,3.1-3.6,3.4-6c0-0.4,0.1-0.7,0.1-1.1
		C259.2,30.9,258.2,28.7,256.5,27L256.5,27z"/>
	<path class="st0" d="M283.4,16.2c0,1.5,1.4,2.6,3,2.6c1.6,0,2.9-1.3,2.9-2.7c0-1.5-1.4-2.6-3-2.6C284.7,13.5,283.4,14.7,283.4,16.2
		L283.4,16.2z"/>
	<path class="st0" d="M275.9,29.2c-0.1,1.1-0.6,2-1.5,2.8c-0.9,0.7-2.1,1.2-3.5,1.2c-0.2,0-0.4,0-0.6,0c-1.4-0.1-2.6-0.8-3.4-1.6
		c-0.8-0.9-1.3-1.9-1.3-3c0-0.1,0-0.3,0-0.4l-0.1,0v0l0.1,0c0.1-1.1,0.6-2,1.5-2.8c0.9-0.7,2.1-1.2,3.5-1.2c0.2,0,0.4,0,0.6,0
		c1.4,0.1,2.6,0.8,3.4,1.6c0.8,0.9,1.3,1.9,1.3,3C275.9,29,275.9,29.1,275.9,29.2L275.9,29.2z M278.3,22.3c-1.7-1.7-4-2.9-6.6-3.1
		c-0.4,0-0.8-0.1-1.1-0.1c-1.9,0-3.6,0.5-5.2,1.3l-0.1-7.2l-5.1,0.1l0.3,26.7l5.1-0.1l0-3c1.3,0.7,2.7,1.1,4.2,1.3
		c0.4,0,0.8,0.1,1.1,0.1c2.5,0,4.9-0.9,6.7-2.4c1.8-1.5,3.1-3.7,3.4-6.2c0-0.3,0-0.6,0-0.9C281.1,26.3,280,24,278.3,22.3L278.3,22.3
		z"/>
	<polygon class="st0" points="283.3,37.6 283.7,20.6 288.8,20.7 288.4,37.8 283.3,37.6 283.3,37.6 	"/>
	<path class="st0" d="M95.1,21.8L90,21.9l0.3,19.7l5.1-0.1L95.1,21.8L95.1,21.8z M92.6,20c1.6-0.1,2.8-1.4,2.7-2.9
		c-0.1-1.5-1.5-2.6-3.1-2.4c-1.6,0.1-2.8,1.4-2.7,2.9C89.6,19,91,20.1,92.6,20L92.6,20z"/>
	<polygon class="st0" points="79.8,27.6 85.7,21.8 82.1,18.1 71.1,29 71.6,11.2 66.5,11 65.6,41.5 76.1,31.2 82.4,39.2 86.4,36 
		79.8,27.6 	"/>
	<polygon class="st0" points="115.7,22.2 115.3,32.8 101.4,18.5 100.6,41.4 105.7,41.6 106.1,30.7 120.1,45.1 120.8,22.4 
		115.7,22.2 	"/>
	<polygon class="st0" points="306.3,19.7 306.3,29.3 292.9,14.1 292.8,37.6 298,37.6 298,27.6 311.4,42.8 311.5,19.7 306.3,19.7 	
		"/>
	<path class="st0" d="M217.2,18.9L217.2,18.9c-0.2,0-2.8,0.1-5.7,1.6c-0.4,0.2-0.8,0.4-1.2,0.7l-0.1-3l-5.1,0.2l0.7,24.4l5.1-0.2
		l-0.4-11.9l0,0c0-0.1,0-0.1,0-0.2c0-1.7,0.4-2.8,1-3.6c0.8-1.2,2.3-2,3.6-2.4c0.7-0.2,1.3-0.3,1.7-0.4c0.2,0,0.4,0,0.5-0.1
		c0.1,0,0.1,0,0.1,0h0L217.2,18.9L217.2,18.9z"/>
	<polygon class="st0" points="137.4,2.4 139,49.7 134.9,49.6 124.8,4.8 137.4,2.4 	"/>
	<path class="st1" d="M139.8,0l0.6,10.7c0,0,11.7-0.8,11.9,6.2c0.2,7-9.4,7.8-9.4,7.8l0.3,5.9c0,0,10.5,0.1,10.7,7
		c0.2,6.9-11.9,8.9-11.9,8.9l-0.2,4.3c0,0,21.4-1.8,21.3-15.3c-0.1-9.4-8.7-10-8.7-10s7.7-3.8,7.5-11.6C161.7,6.3,156.7,0,139.8,0
		L139.8,0z"/>
	<polygon class="st1" points="168.3,0 167.9,50.5 174.2,50.6 179.3,0.5 168.3,0 	"/>
	<path class="st0" d="M181.4,1.7l-1,11.2c0,0,8.9,1.8,8.6,7.7c-0.4,5.9-10,8.8-10,8.8l-0.8,6l9.3,14l5.2-0.8l-6.5-15.3
		c0,0,11.5-3,12.9-15.7C200.4,4.9,181.4,1.7,181.4,1.7L181.4,1.7z"/>
	<path class="st0" d="M54,44.5l-2-3.3l4.2-2.6c0,0,1.8-0.9,0.8-3c-1.8-3.6-4-7.8-4-7.8s-2-4.3,1.4-6.3l6.4-3.9l1.9,3.4l-4.2,2.7
		c-0.9,0.7-1.4,1.5-0.9,2.5c1.3,2.5,3.9,7.8,3.9,7.8s2.9,4.4-0.9,6.6L54,44.5L54,44.5z"/>
	<path class="st0" d="M315.9,44.5l-2-3.3l4.2-2.6c0,0,1.8-0.9,0.8-3c-1.8-3.6-4-7.8-4-7.8s-2-4.3,1.4-6.3l6.4-3.9l1.9,3.4l-4.2,2.7
		c-0.9,0.7-1.4,1.5-0.9,2.5c1.3,2.5,3.9,7.8,3.9,7.8s2.9,4.4-0.9,6.6L315.9,44.5L315.9,44.5z"/>
	<path class="st0" d="M325,16l-0.9,1.1l4.2,2.4l0.1-0.2c0-0.1,0-0.2,0.1-0.5c0.1-0.7,0.2-2.2,0.2-2.2l0-0.1L325,16L325,16z"/>
</g>
</svg>
